<svg xmlns="http://www.w3.org/2000/svg" viewBox="0 0 219 229" role="img" aria-label="MARJON">
  <defs>
    <radialGradient id="marjonPearl" cx="40%" cy="36%" r="65%">
      <stop offset="0%" stop-color="#ffffff"/>
      <stop offset="42%" stop-color="#eceff3"/>
      <stop offset="76%" stop-color="#c4cbd4"/>
      <stop offset="100%" stop-color="#949da9"/>
    </radialGradient>
  </defs>
  <path d="M43.15,139.25 C43.25,103.36 43.66,74.00 44.06,74.00 C45.51,74.00 68.00,98.78 68.00,100.37 C68.00,101.27 68.79,102.00 69.76,102.00 C70.72,102.00 80.71,111.22 91.95,122.50 C103.19,133.78 112.80,143.00 113.30,143.00 C113.80,143.00 129.67,127.36 148.56,108.25 L182.92,73.50 L182.96,138.50 L183.00,203.50 L176.00,196.87 L169.00,190.23 L169.00,149.87 L169.00,109.50 L141.25,137.25 L113.51,165.00 L84.37,135.87 L55.22,106.74 L56.61,112.09 C57.67,116.18 58.00,126.07 58.00,154.10 L58.00,190.76 L53.25,194.53 C50.64,196.60 47.26,199.70 45.73,201.40 L42.97,204.50 L43.15,139.25 Z M144.17,89.00 C149.04,83.02 152.79,75.36 154.02,68.90 C155.86,59.21 152.11,46.76 144.90,38.54 C143.19,36.59 142.10,35.00 142.47,35.00 C142.84,35.00 145.99,37.03 149.47,39.52 C156.79,44.74 166.63,54.94 169.44,60.21 L171.37,63.85 L165.44,70.18 C158.49,77.60 147.77,87.85 143.50,91.17 C140.64,93.39 140.68,93.28 144.17,89.00 Z M71.76,80.09 C57.08,65.90 56.01,64.30 58.21,59.69 C60.51,54.86 69.44,45.49 76.41,40.59 C85.27,34.36 85.51,34.31 81.43,39.65 C75.83,46.98 73.79,52.44 73.27,61.50 C72.73,70.79 74.93,78.12 80.38,85.28 C87.93,95.20 86.50,94.34 71.76,80.09 Z" fill="#0b223f"/>
  <path d="M100.49,109.90 C87.79,97.11 87.62,96.88 93.00,99.82 C107.59,107.82 119.48,107.80 134.00,99.77 C139.36,96.80 139.18,97.05 126.51,109.86 C119.37,117.09 113.52,123.00 113.50,123.00 C113.48,123.00 107.63,117.11 100.49,109.90 Z" fill="#08858a"/>
  <circle cx="114" cy="86" r="24" fill="url(#marjonPearl)"/>
</svg>
